<?xml version="1.0" encoding="iso-8859-1"?>
<!-- Generator: Adobe Illustrator 19.0.0, SVG Export Plug-In . SVG Version: 6.00 Build 0)  -->
<svg version="1.1" id="Capa_1" xmlns="http://www.w3.org/2000/svg" xmlns:xlink="http://www.w3.org/1999/xlink" x="0px" y="0px"
	 viewBox="0 0 512.064 512.064" style="enable-background:new 0 0 512.064 512.064;" xml:space="preserve">
<rect x="180.32" y="305.301" style="fill:#F8B64C;" width="151.317" height="124.459"/>
<rect x="144.683" y="420.971" style="fill:#54C0EB;" width="222.613" height="91.093"/>
<g>
	<path style="fill:#40596B;" d="M512.032,453.451v58.56h-195.2l8.32-91.093l6.496-71.787v-0.32l149.024,58.56
		C499.552,414.837,512.032,433.077,512.032,453.451"/>
	<path style="fill:#40596B;" d="M195.243,512.011H0.032v-58.56c0-20.373,12.373-38.613,31.36-46.08l149.013-58.56v0.32l6.496,71.787
		L195.243,512.011z"/>
</g>
<g>
	<path style="fill:#334A5E;" d="M367.285,457.931c-1.067,0.427-1.269,1.92-0.416,2.773l0.416,0.427l51.744,50.88H316.832
		l8.32-91.093l6.496-71.787l95.893,79.253c0.96,0.747,0.747,2.347-0.427,2.88L367.285,457.931z"/>
	<path style="fill:#334A5E;" d="M195.243,512.011H93.056l51.627-50.773l0.533-0.533c0.853-0.853,0.533-2.347-0.533-2.773
		l-59.84-26.667c-1.173-0.533-1.387-2.133-0.427-2.88l96-79.253l6.496,71.787L195.243,512.011z"/>
</g>
<g style="opacity:0.1;">
	<g>
		<polygon style="fill:#40596B;" points="331.637,305.301 331.616,349.131 277.589,392.64 215.307,346.336 248.555,305.301 		"/>
	</g>
</g>
<g>
	<path style="fill:#F8B64C;" d="M175.755,206.155c1.675,19.147-7.616,35.605-20.736,36.747
		c-13.141,1.152-25.152-13.44-26.837-32.587c-1.664-19.147,7.616-35.605,20.747-36.747
		C162.069,172.416,174.069,187.008,175.755,206.155"/>
	<path style="fill:#F8B64C;" d="M383.819,210.315c-1.685,19.147-13.685,33.739-26.827,32.587
		c-13.131-1.141-22.432-17.6-20.757-36.747c1.675-19.147,13.685-33.739,26.837-32.587
		C376.203,174.709,385.493,191.168,383.819,210.315"/>
</g>
<path style="fill:#FFD15C;" d="M366.485,156.064v36.267c-0.107,7.68-0.544,15.36-1.504,22.933c-1.589,12.587-4.256,24.96-8,36.907
	c-9.067,28.907-24.309,55.573-44.896,78.08l-10.56,11.52c-9.6,10.56-23.253,16.533-37.557,16.533h-16
	c-14.187,0-27.84-6.08-37.44-16.533l-10.443-11.52c-14.624-15.893-26.56-34.027-35.413-53.333
	c-8.96-19.413-14.933-40.213-17.504-61.653c-0.96-7.573-1.493-15.253-1.493-22.933c-0.117-0.853-0.117-1.6-0.117-2.453v-33.173
	c0-10.453,1.504-20.693,4.267-30.293c13.12-46.187,55.691-80.107,106.251-80.107c50.443,0,93.003,33.92,106.123,80.107
	C364.992,135.797,366.485,145.824,366.485,156.064"/>
<g>
	<polygon style="fill:#84DBFF;" points="256,410.155 331.637,348.789 320.245,474.667 	"/>
	<polygon style="fill:#84DBFF;" points="256,410.155 180.363,348.789 191.765,474.667 	"/>
</g>
<path style="fill:#FF7058;" d="M379.147,135.381v6.987H132.853v-6.987c0-42.571,22.368-79.947,56.011-100.939
	c18.272-11.467,39.925-18.123,63.051-18.123h8.171c23.136,0,44.736,6.603,62.997,18.069
	C356.715,55.403,379.147,92.779,379.147,135.381"/>
<path style="fill:#F1543F;" d="M327.328,68.704l-8.96,73.664l-1.419,11.797H195.051l-1.419-11.797l-8.96-73.664
	c-1.419-11.701,0.043-23.456,4.192-34.261c18.272-11.467,39.925-18.123,63.051-18.123h8.16c23.125,0,44.747,6.603,63.008,18.08
	C327.243,45.205,328.747,56.949,327.328,68.704"/>
<path style="fill:#FF7058;" d="M306.496,142.379H205.483l-9.109-75.083C192.032,31.52,219.957,0,256,0
	c36.032,0,63.957,31.52,59.616,67.296L306.496,142.379z"/>
<path style="fill:#F1543F;" d="M379.243,176.373H132.747c-9.387,0-16.992-7.616-16.992-17.003c0-9.387,7.605-17.003,16.992-17.003
	h246.485c9.397,0,17.003,7.616,17.003,17.003C396.235,168.757,388.64,176.373,379.243,176.373"/>
<path style="fill:#F8B64C;" d="M366.485,176.331v16h-220.8c-0.117-0.853-0.117-1.6-0.117-2.453v-13.547H366.485z"/>
<g>
</g>
<g>
</g>
<g>
</g>
<g>
</g>
<g>
</g>
<g>
</g>
<g>
</g>
<g>
</g>
<g>
</g>
<g>
</g>
<g>
</g>
<g>
</g>
<g>
</g>
<g>
</g>
<g>
</g>
</svg>
