<svg height="512" viewBox="0 0 512 512" width="512" xmlns="http://www.w3.org/2000/svg"><g><g><g><g><path d="m280.93 328c-.32.01-.63.01-.95.01l-24-.01z" fill="#57a4ff"/><path d="m479.94 496.06-72-.02-152-.04-152-.04-71-.02 1.77-73.63a80.009 80.009 0 0 1 60.45-56.29l104.82-22.03a56 56 0 1 0 112 .02l104.8 22.09a80.032 80.032 0 0 1 60.43 56.33z" fill="#57a4ff"/><path d="m103.949 455.961-.011 40" fill="none"/><path d="m407.949 456.039-.011 40" fill="none"/><path d="m158.1 183.98h-10.29a1.477 1.477 0 0 1 .21-.01z" fill="#57a4ff"/></g><path d="m368.03 144.03-.01 15.99v.01l-112-.03-112-.03.01-16a112.022 112.022 0 0 1 80.02-107.33l-.01 59.35 64 .02.01-59.35h.01a112.029 112.029 0 0 1 79.97 107.37z" fill="#57a4ff"/><path d="m255.963 400-.025 96" fill="none"/><g fill="#57a4ff"><circle cx="287.955" cy="432.008" r="8"/><circle cx="287.944" cy="472.008" r="8"/><path d="m148.02 183.97 10.08.01h-10.29a1.477 1.477 0 0 1 .21-.01z"/><path d="m368.02 160.02v.01l-112-.03z"/></g></g><g><path d="m320 248v67.88a69.347 69.347 0 0 1 -8.02 4.64v.01a71.584 71.584 0 0 1 -31.05 7.47h-24.95l-24-.01a71.44 71.44 0 0 1 -39.98-12.13v-67.86l64-24z" fill="#57a4ff"/><g fill="none"><path d="m160.02 184.04-.02-.04"/><path d="m352 184-.01.02"/></g></g></g><g fill="#004fac"><path d="m485.2 422.13a7.683 7.683 0 0 0 -.3-1.9 87.82 87.82 0 0 0 -66.47-61.96l-98.45-20.75v-12.27a80.036 80.036 0 0 0 40.02-69.22h4.01a28.044 28.044 0 0 0 28-28v-24a27.887 27.887 0 0 0 -2.7-12l2.71.01a8.006 8.006 0 0 0 8-8v-24a7.989 7.989 0 0 0 -7.99-8l-16-.01v-8a120 120 0 0 0 -79.97-113.16v-14.86a8 8 0 0 0 -8-8l-64-.02a8.006 8.006 0 0 0 -8 8v14.86a121.071 121.071 0 0 0 -55.74 40.75 118.934 118.934 0 0 0 -24.29 72.37v8l-16-.01h-.01a8.017 8.017 0 0 0 -8 8v24a7.989 7.989 0 0 0 8 8l2.7.01a27.827 27.827 0 0 0 -2.71 12v24a28.022 28.022 0 0 0 27.99 28h4a80.028 80.028 0 0 0 39.98 69.25v12.27l-98.47 20.7a87.8 87.8 0 0 0 -66.49 61.92 8.092 8.092 0 0 0 -.31 2.01l-1.77 73.63a7.992 7.992 0 0 0 8 8.19l447 .12a7.965 7.965 0 0 0 3.13-.64 7.843 7.843 0 0 0 2.63-1.81 7.968 7.968 0 0 0 2.23-5.84zm-141.2-166.11a63.707 63.707 0 0 1 -16 42.25v-48.38l16.01-32.02zm32.01-27.99a12.016 12.016 0 0 1 -12 12h-4.01l.02-48h4a12 12 0 0 1 11.99 12zm-143.95-191.26v-12.78l48 .02v12.78l-.02 51.22-48-.02zm-80.03 107.2a103 103 0 0 1 21.04-62.7 105.037 105.037 0 0 1 42.98-33.27l-.01 47.99a8 8 0 0 0 8 8l64 .02a7.989 7.989 0 0 0 8-8l.01-48.01a103.986 103.986 0 0 1 63.98 96.03v8l-104-.03-104-.03zm-24.01 32v-8l256 .06v8zm23.98 64h-4a12.007 12.007 0 0 1 -11.99-12v-24a12.022 12.022 0 0 1 12-12h4.01zm32 58.34a63.556 63.556 0 0 1 -16-42.33l.01-38.07 15.99 31.98zm-11.07-106.33h21.24a16 16 0 1 0 29.84 8.01 15.849 15.849 0 0 0 -2.15-8l68.31.02a15.994 15.994 0 1 0 29.84 8.01 15.821 15.821 0 0 0 -2.15-8h21.19l-22.98 45.96-57.26-21.47a8 8 0 0 0 -5.62 0l-57.26 21.47zm139.07 61.56v57.86a63.632 63.632 0 0 1 -32 8.61h-.02l-48-.02a63.512 63.512 0 0 1 -31.98-8.56v-57.89l56-21zm-64.06 234.46-136-.04.01-32a8 8 0 1 0 -16 0l-.01 32-54.81-.02 1.55-64.38a71.844 71.844 0 0 1 54.13-49.71l95.9-20.16a64.005 64.005 0 0 0 55.25 53.8zm8.02-96a48 48 0 0 1 -47.98-48.01v-11.69a79.365 79.365 0 0 0 24 3.69l48 .02h.02a79.857 79.857 0 0 0 23.98-3.68v11.68a48.055 48.055 0 0 1 -48 47.99zm159.98 96.04.01-32a8 8 0 1 0 -16 0l-.01 32-136-.04.02-80.52a64.126 64.126 0 0 0 55.28-53.76l95.89 20.21a71.85 71.85 0 0 1 54.12 49.79l2.39 64.34z"/><path d="m287.957 424.008a8 8 0 1 0 8 8 8 8 0 0 0 -8-8z"/><path d="m287.947 464.008a8 8 0 1 0 8 8 8 8 0 0 0 -8-8z"/></g></g></svg>