<svg id="Capa_1" enable-background="new 0 0 512 512" height="512" viewBox="0 0 512 512" width="512" xmlns="http://www.w3.org/2000/svg"><g><g><path d="m14.179 504.491-6.669-.006-.006-6.669c-.01-11.265 4.461-22.071 12.426-30.036l406.819-406.819c6.706-6.706 17.579-6.706 24.285 0 6.706 6.706 6.706 17.579 0 24.285l-406.818 406.819c-7.966 7.965-18.772 12.435-30.037 12.426z" fill="#e7ecf6"/></g><path d="m380.39 107.32-273.065 273.064c7.367 8.79 15.495 16.919 24.285 24.285l273.064-273.064c-7.366-8.79-15.494-16.918-24.284-24.285z" fill="#d8e2f1"/><g><g id="XMLID_1_"><g><path d="m420.448 206.388c4.727 15.707 7.273 32.364 7.273 49.607 0 17.94-2.758 35.243-7.859 51.506-.414.01-.818.01-1.232.01-18.334 0-35.991-2.869-52.557-8.202 23.617-27.89 41.91-59.274 54.375-92.921z" fill="#e49824"/><path d="m420.448 206.378v.01c-12.465 33.647-30.758 65.032-54.375 92.921-5.667 6.717-11.657 13.223-17.95 19.516s-12.818 12.293-19.536 17.97c-13.465 11.404-27.748 21.556-42.698 30.415-15.697 9.293-32.142 17.172-49.173 23.546-20.132 7.535-41.072 12.99-62.557 16.233h-.01c-19.92-10.818-37.455-25.465-51.617-42.95 1.384.03 2.778.04 4.172.04 71.234 0 138.195-27.738 188.569-78.103 38.445-38.455 63.708-86.578 73.507-138.882 14.172 17.273 25.052 37.354 31.668 59.284z" fill="#f1cb86"/><path d="m418.63 307.511c.414 0 .818 0 1.232-.01-5.374 17.101-13.344 33.051-23.455 47.385-23.94-2.404-46.759-8.637-67.82-18.091 6.717-5.677 13.243-11.677 19.536-17.97s12.283-12.798 17.95-19.516c16.566 5.333 34.223 8.202 52.557 8.202z" fill="#e7a52e"/><path d="m346.547 110.073c16.041 9.96 30.304 22.495 42.233 37.021-9.798 52.304-35.061 100.426-73.507 138.882-50.375 50.365-117.336 78.103-188.569 78.103-1.394 0-2.788-.01-4.172-.04-11.748-14.475-21.172-30.91-27.728-48.718 10.414 1.515 21.061 2.293 31.9 2.293 117.366-.002 213.288-91.822 219.843-207.541z" fill="#f6e4c1"/><path d="m396.407 354.886c-10.98 15.556-24.465 29.203-39.89 40.344-24.819-5.889-48.567-15.313-70.628-28.021 14.95-8.859 29.233-19.01 42.698-30.415 21.061 9.455 43.88 15.688 67.82 18.092z" fill="#e49824"/><path d="m285.89 367.209c22.061 12.707 45.809 22.132 70.628 28.021-18.324 13.253-39.364 22.98-62.122 28.182h-.01c-20.253-8.758-39.566-19.677-57.668-32.657 17.029-6.374 33.474-14.253 49.172-23.546z" fill="#e7a52e"/><path d="m298.243 89.517c17.303 4.374 33.546 11.374 48.304 20.556-6.556 115.72-102.477 207.54-219.843 207.54-10.839 0-21.485-.778-31.9-2.293-5.95-16.142-9.536-33.425-10.344-51.435 13.515 3.424 27.667 5.243 42.243 5.243 2.788 0 5.566-.071 8.323-.202 16.526-.788 32.435-3.909 47.415-9.051 14.879-5.101 28.839-12.192 41.566-20.96 14.02-9.657 26.536-21.344 37.112-34.637 23.354-29.334 37.304-66.476 37.304-106.871.002-2.648-.058-5.274-.18-7.89z" fill="#f1cb86"/><path d="m298.243 89.517c.121 2.616.182 5.243.182 7.889 0 40.395-13.95 77.537-37.304 106.871-9.142-20.98-14.212-44.142-14.212-68.486 0-17.94 2.758-35.243 7.859-51.506.414-.01.818-.01 1.232-.01 14.576-.001 28.728 1.817 42.243 5.242z" fill="#e7a52e"/><path d="m236.717 390.755c18.101 12.98 37.415 23.899 57.668 32.657-12.344 2.818-25.192 4.303-38.385 4.303-29.627 0-57.506-7.505-81.84-20.728 21.485-3.242 42.425-8.696 62.557-16.232z" fill="#e49824"/><path d="m246.909 135.79c0 24.344 5.071 47.506 14.212 68.486-10.576 13.293-23.091 24.98-37.112 34.637-16.334-30.768-25.586-65.87-25.586-103.123 0-14.728 1.444-29.132 4.212-43.051 16.425-5.374 33.94-8.334 52.132-8.455-5.1 16.263-7.858 33.567-7.858 51.506z" fill="#ecbe6b"/><path d="m198.423 135.79c0 37.253 9.253 72.355 25.586 103.123-12.728 8.768-26.687 15.859-41.566 20.96-19.92-37.799-30.485-80.133-30.485-124.083 0-5.636.172-11.243.515-16.808 14.99-11.344 31.9-20.283 50.163-26.243-2.768 13.919-4.213 28.324-4.213 43.051z" fill="#e7a52e"/><path d="m151.958 135.79c0 43.95 10.566 86.285 30.485 124.083-14.98 5.142-30.89 8.263-47.415 9.051-14.586-31.011-23.96-64.335-27.698-98.921v-.01c11.525-19.869 26.91-37.213 45.142-51.011-.343 5.566-.514 11.172-.514 16.808z" fill="#ecbe6b"/><path d="m135.028 268.924c-2.758.131-5.535.202-8.323.202-14.576 0-28.728-1.818-42.243-5.243-.121-2.616-.182-5.243-.182-7.889 0-31.334 8.394-60.698 23.051-85.992 3.737 34.588 13.111 67.912 27.697 98.922z" fill="#e7a52e"/></g></g></g><circle cx="457.014" cy="54.981" fill="#5e54ac" r="47.476"/><path d="m478.257 12.525c3.205 6.393 5.02 13.604 5.02 21.243 0 26.22-21.256 47.476-47.476 47.476-7.639 0-14.85-1.815-21.243-5.02 7.797 15.551 23.874 26.232 42.456 26.232 26.22 0 47.476-21.256 47.476-47.476 0-18.581-10.681-34.658-26.233-42.455z" fill="#524798"/><g><path d="m497.821 504.491 6.669-.006.006-6.669c.01-11.265-4.461-22.071-12.426-30.036l-406.818-406.819c-6.706-6.706-17.579-6.706-24.285 0-6.706 6.706-6.706 17.579 0 24.285l406.818 406.818c7.965 7.966 18.771 12.436 30.036 12.427z" fill="#e7ecf6"/></g><circle cx="54.986" cy="54.981" fill="#5e54ac" r="47.476"/><path d="m76.229 12.525c3.205 6.393 5.02 13.604 5.02 21.243 0 26.22-21.256 47.476-47.476 47.476-7.639 0-14.85-1.815-21.243-5.02 7.797 15.551 23.874 26.232 42.456 26.232 26.22 0 47.476-21.256 47.476-47.476 0-18.581-10.681-34.658-26.233-42.455z" fill="#524798"/><path d="m497.373 462.471-44.54-44.54c-2.929-2.929-7.678-2.929-10.606 0-2.929 2.929-2.929 7.678 0 10.606l44.54 44.54c6.318 6.318 10.018 14.993 10.224 23.908-8.917-.208-17.59-3.907-23.908-10.224l-386.69-386.699c5.322-3.719 9.955-8.352 13.674-13.674l317.409 317.4c1.464 1.464 3.384 2.197 5.303 2.197s3.839-.732 5.303-2.197c2.929-2.929 2.929-7.678 0-10.606l-29.111-29.111c1.216-1.605 2.406-3.229 3.556-4.862 21.388-30.309 32.692-66 32.692-103.214 0-17.641-2.557-35.054-7.598-51.75-6.146-20.431-15.781-39.34-28.657-56.319l40.762-40.77c5.44 1.807 11.249 2.801 17.288 2.801 30.313 0 54.976-24.662 54.976-54.976s-24.662-54.976-54.976-54.976-54.976 24.662-54.976 54.976c0 6.039.993 11.847 2.8 17.288l-40.767 40.759c-4.367-3.302-8.886-6.416-13.558-9.319-43.499-27.47-100.484-34.604-150.2-18.104-18.867 6.155-36.487 15.374-52.376 27.405-.007.005-.013.01-.02.015l-40.757-40.756c1.807-5.44 2.801-11.249 2.801-17.288 0-30.313-24.662-54.976-54.976-54.976s-54.975 24.662-54.975 54.976 24.662 54.976 54.976 54.976c6.039 0 11.848-.993 17.288-2.801l40.764 40.765c-23.424 30.97-36.259 69.078-36.259 108.074-.106 19.597 3.749 42.661 10.982 61.911 6.097 16.563 14.593 32.062 25.273 46.158l-21.884 21.884c-14.572-9.824-32.226-17.676-48.407-6.897-7.805 5.206-22.961 20.944-1.86 57.165l-26.256 26.256c-9.444 9.443-14.639 21.998-14.627 35.353l.01 6.67c.006 4.134 3.355 7.483 7.489 7.489l6.675.01h.044c13.334 0 25.873-5.194 35.305-14.627l22.065-22.065c4.274 4.446 8.829 8.945 13.619 13.439 1.448 1.358 3.291 2.03 5.13 2.03 2 0 3.995-.795 5.471-2.368 2.834-3.021 2.683-7.768-.338-10.602-4.68-4.391-9.122-8.78-13.275-13.108l36.798-36.799c27.072 23.496 57.48 48.735 89.529 48.735 28.116 0 41.647-13.311 48.048-24.478 3.568-6.225 5.297-12.456 6.136-17.072 36.64-1.382 72.172-14.044 101.362-36.121l98.406 98.409c9.434 9.434 21.97 14.627 35.31 14.627h.044l6.671-.01c4.133-.006 7.483-3.355 7.489-7.489l.01-6.675c.014-13.35-5.181-25.905-14.625-35.349zm-291.453-326.676c0-12.518 1.103-25.022 3.265-37.238 11.565-3.438 23.479-5.577 35.579-6.395-3.555 14.218-5.355 28.848-5.355 43.629 0 23.28 4.386 45.869 13.043 67.215-2.204 2.622-4.503 5.181-6.877 7.672l-36.107-36.106c-2.346-12.733-3.548-25.764-3.548-38.777zm84.997-40.288c.008.639.013 1.272.013 1.898 0 9.611-.833 19.206-2.476 28.517-.72 4.079 2.003 7.969 6.083 8.689.441.078.879.116 1.312.116 3.571 0 6.735-2.56 7.377-6.198 1.675-9.491 2.569-19.246 2.682-29.028 11.444 3.643 22.444 8.546 32.848 14.637-3.828 49.213-24.574 95.253-58.883 130.838l-23.689-23.688c3.793-3.965 7.42-8.087 10.804-12.341 10.983-13.792 19.833-29.045 26.303-45.333 1.529-3.85-.352-8.21-4.202-9.739-3.848-1.53-8.21.352-9.739 4.202-4.281 10.779-9.719 21.055-16.196 30.702-5.803-16.986-8.745-34.752-8.745-52.989 0-14.928 2.004-29.685 5.952-43.948 10.308.27 20.546 1.497 30.556 3.665zm89.803 53.702c-9.776 48.478-33.201 92.807-67.978 128.635l-22.262-22.262c34.944-36.157 56.78-82.436 62.44-132.146 10.225 7.479 19.527 16.116 27.8 25.773zm39.5 106.786c0 15.024-2.013 29.775-5.937 43.953-11.942-.31-23.728-1.899-35.203-4.74 15.642-19.856 28.776-41.331 39.244-64.146 1.252 8.212 1.896 16.542 1.896 24.933zm-59.886 38.478c-4.644 5.514-9.599 10.948-14.742 16.219l-22.242-22.241c33.841-34.808 57.547-77.227 69.226-123.687 8.574 12.786 15.244 26.651 19.927 41.397-12.226 32.155-29.754 61.855-52.169 88.312zm29.935 56.093c-.657.932-1.35 1.849-2.03 2.772l-32.04-32.04c4.27-4.37 8.408-8.85 12.362-13.393 13.262 3.86 26.946 6.159 40.842 6.864-4.826 12.581-11.227 24.591-19.134 35.797zm66.745-335.561c22.042 0 39.976 17.933 39.976 39.976s-17.933 39.976-39.976 39.976-39.976-17.933-39.976-39.976 17.934-39.976 39.976-39.976zm-45.082 71.383c3.719 5.322 8.353 9.956 13.675 13.675l-36.224 36.232c-4.321-4.814-8.889-9.377-13.684-13.681zm-218.821 17.867c-1.445 10.412-2.191 20.972-2.191 31.54 0 7.083.338 14.172.991 21.222l-33.27-33.27c10.71-7.904 22.257-14.432 34.47-19.492zm-178.101-49.274c0-22.042 17.933-39.976 39.976-39.976s39.976 17.933 39.976 39.976-17.934 39.975-39.976 39.975-39.976-17.933-39.976-39.975zm280.026 360.506c-14.709-6.509-28.932-14.218-42.459-23.007 11.405-4.869 22.563-10.446 33.353-16.637 16.652 9.239 34.212 16.677 52.414 22.223-13.534 7.835-28.133 13.702-43.308 17.421zm-39.036 4.728c-19.567 0-38.988-3.53-57.202-10.283 12.49-2.857 24.794-6.48 36.811-10.808 10.785 7.53 22.031 14.408 33.655 20.544-4.402.359-8.826.547-13.264.547zm-137.731-12.805c-5.303-4.572-10.188-8.7-14.917-12.45l19.265-19.265c4.324 4.825 8.891 9.386 13.679 13.688zm20.777-36.124c14.679-.648 29.259-2.434 43.488-5.365 4.057-.836 6.668-4.802 5.833-8.859-.835-4.058-4.806-6.667-8.859-5.833-17.219 3.547-34.985 5.346-52.807 5.346-.173 0-.346-.005-.519-.005-7.792-10.035-14.348-20.867-19.595-32.339 6.671.585 13.398.884 20.114.884 45.065 0 88.384-13.065 125.701-37.828l22.683 22.684c-19.391 13.6-40.477 24.429-62.806 32.223-3.911 1.365-5.975 5.642-4.609 9.553 1.08 3.093 3.98 5.03 7.081 5.03.82 0 1.654-.135 2.472-.421 24.462-8.538 47.514-20.515 68.623-35.625l22.522 22.523c-8.46 6.285-17.272 12.156-26.299 17.498-15.301 9.063-31.442 16.794-47.979 22.979-18.885 7.074-38.577 12.247-58.563 15.431-13.484-7.589-25.703-16.921-36.481-27.876zm-3.658-94.87c16.925-.809 33.575-3.988 49.485-9.447 11.259-3.862 22.11-8.858 32.345-14.865l24.349 24.35c-34.271 22.048-73.792 33.661-114.868 33.661-8.823 0-17.664-.549-26.346-1.624-3.835-11.377-6.403-23.134-7.661-35.107 11.169 2.146 22.566 3.24 34.007 3.24 2.83.001 5.751-.069 8.689-.208zm50.715-25.881c-7.514-15.191-13.487-31.047-17.854-47.403l37.982 37.983c-6.475 3.594-13.209 6.735-20.128 9.42zm165.172 135.628c-17.484-4.67-34.393-11.166-50.476-19.395 6.237-4.049 12.347-8.324 18.283-12.798zm-202.692-202.697c4.359 25.009 12.139 49.135 23.174 71.874-10.44 2.972-21.173 4.911-32.06 5.764-12.734-28.301-21.002-58.346-24.615-89.419 2.675-4.477 5.571-8.83 8.676-13.046zm-45.113 11.737c4.256 22.845 10.966 45.059 20.06 66.373-10.699-.204-21.335-1.431-31.728-3.679-.007-.634-.022-1.27-.022-1.902 0-20.928 4.038-41.574 11.69-60.792zm-52.407 196.329c4.839-3.224 12.497-5.262 29.233 5.271l-28.39 28.39c-6.295-11.795-11.2-26.754-.843-33.661zm-12.146 95.23c-6.319 6.319-14.992 10.018-23.908 10.224.208-8.917 3.907-17.59 10.224-23.908l67.435-67.435c4.71 3.683 9.61 7.796 14.964 12.403zm169.607-25.131c-26.311 0-54.018-22.802-78.896-44.368l18.285-18.285c6.079 4.638 15.166 10.574 22.899 14.724 23.486 12.715 49.794 19.993 76.583 21.285-.748 3.015-1.997 6.621-4.108 10.172-6.498 10.93-18.194 16.472-34.763 16.472z"/></g></svg>