<svg id="Layer_1" data-name="Layer 1" xmlns="http://www.w3.org/2000/svg" xmlns:xlink="http://www.w3.org/1999/xlink" viewBox="0 0 342.7 312.82"><defs><style>.cls-1{fill:#c9a8f4;opacity:0.24;}.cls-1,.cls-11,.cls-12,.cls-15,.cls-16,.cls-43{isolation:isolate;}.cls-2{fill:url(#linear-gradient);}.cls-3{fill:url(#linear-gradient-2);}.cls-4{fill:url(#linear-gradient-3);}.cls-5{fill:url(#linear-gradient-4);}.cls-6{opacity:0.63;}.cls-32,.cls-40,.cls-7{fill:none;}.cls-7{stroke:#ea8bef;stroke-linecap:round;stroke-width:1.03px;}.cls-19,.cls-25,.cls-32,.cls-7{stroke-miterlimit:10;}.cls-8{fill:url(#linear-gradient-5);}.cls-9{fill:#fff;}.cls-10{fill:#602fda;}.cls-11,.cls-15{fill:#e3dce5;}.cls-11,.cls-16{opacity:0.57;}.cls-12,.cls-16{fill:#cac2ce;}.cls-12{opacity:0.65;}.cls-13{fill:#e83867;}.cls-14{fill:#a15edd;}.cls-15{opacity:0.61;}.cls-17{fill:url(#linear-gradient-6);}.cls-18{fill:#ed4c76;}.cls-19,.cls-25,.cls-32{stroke:#04006a;stroke-width:0.41px;}.cls-19{fill:url(#linear-gradient-7);}.cls-20{fill:#4f349b;}.cls-21{fill:url(#linear-gradient-8);}.cls-22{fill:url(#linear-gradient-9);}.cls-23{fill:url(#linear-gradient-10);}.cls-24{fill:url(#linear-gradient-11);}.cls-25{fill:#ced5e0;}.cls-26{fill:#ba2744;}.cls-27{fill:url(#linear-gradient-12);}.cls-28{fill:url(#linear-gradient-13);}.cls-29{fill:url(#linear-gradient-14);}.cls-30{fill:url(#linear-gradient-15);}.cls-31{fill:url(#linear-gradient-16);}.cls-33{fill:url(#linear-gradient-17);}.cls-34{fill:url(#linear-gradient-18);}.cls-35{fill:#ebeff7;}.cls-36{fill:url(#linear-gradient-19);}.cls-37{fill:url(#linear-gradient-20);}.cls-38{fill:#d8dde5;}.cls-39{fill:#f2f2f7;}.cls-41{fill:url(#linear-gradient-21);}.cls-42{fill:url(#linear-gradient-22);}.cls-43{fill:#d054e2;opacity:0.66;}.cls-44{fill:#804ece;}</style><linearGradient id="linear-gradient" x1="-45.97" y1="585.09" x2="-45.15" y2="585.09" gradientTransform="matrix(52.62, 0, 0, -14.72, 3314.09, 8934.8)" gradientUnits="userSpaceOnUse"><stop offset="0" stop-color="#9f42dd"/><stop offset="1" stop-color="#e774e0"/></linearGradient><linearGradient id="linear-gradient-2" x1="-47.81" y1="598.67" x2="-47.15" y2="598.95" gradientTransform="matrix(55.15, 0, 0, -36.62, 3460.74, 22090.89)" xlink:href="#linear-gradient"/><linearGradient id="linear-gradient-3" x1="-49.95" y1="602.71" x2="-49.27" y2="603.18" gradientTransform="matrix(57.51, 0, 0, -74.66, 3592.59, 44948.19)" xlink:href="#linear-gradient"/><linearGradient id="linear-gradient-4" x1="33.25" y1="503.8" x2="32.9" y2="504.18" gradientTransform="matrix(35.18, 0, 0, -111.4, 2297.27, 67025.72)" xlink:href="#linear-gradient"/><linearGradient id="linear-gradient-5" x1="-57.64" y1="600.59" x2="-56.64" y2="600.59" gradientTransform="matrix(160.45, 0, 0, -301.23, 9385.23, 181066.65)" gradientUnits="userSpaceOnUse"><stop offset="0" stop-color="#6656cc"/><stop offset="1" stop-color="#7472d6"/></linearGradient><linearGradient id="linear-gradient-6" x1="-79.53" y1="590.8" x2="-80.17" y2="592.04" gradientTransform="matrix(9.93, 0, 0, -23.86, 888.54, 14253.5)" gradientUnits="userSpaceOnUse"><stop offset="0" stop-color="#e85b7d"/><stop offset="1" stop-color="#ff78af"/></linearGradient><linearGradient id="linear-gradient-7" x1="-9937.49" y1="-242.5" x2="-9936.48" y2="-242.5" gradientTransform="matrix(0.02, 0, 0, -0.27, 323.76, 67.22)" gradientUnits="userSpaceOnUse"><stop offset="0" stop-color="#f99393"/><stop offset="1" stop-color="#ffb0b4"/></linearGradient><linearGradient id="linear-gradient-8" x1="674.51" y1="580.38" x2="675.51" y2="580.38" gradientTransform="matrix(5.83, 0, 0, -10.94, 700.54, 6666.06)" xlink:href="#linear-gradient-6"/><linearGradient id="linear-gradient-9" x1="80.37" y1="736.39" x2="79.57" y2="735.66" gradientTransform="matrix(16.29, 0, 0, -80.69, 1298.58, 48565.97)" xlink:href="#linear-gradient-6"/><linearGradient id="linear-gradient-10" x1="682.06" y1="580.37" x2="683.06" y2="580.37" gradientTransform="matrix(5.83, 0, 0, -10.94, 678.55, 6664.92)" xlink:href="#linear-gradient-6"/><linearGradient id="linear-gradient-11" x1="-70.79" y1="598.97" x2="-71.59" y2="598.24" gradientTransform="matrix(16.3, 0, 0, -80.69, 1276.8, 48568.63)" xlink:href="#linear-gradient-6"/><linearGradient id="linear-gradient-12" x1="-62.56" y1="597.69" x2="-63" y2="596.75" gradientTransform="matrix(41.93, 0, 0, -54.17, 2762.05, 32568.36)" gradientUnits="userSpaceOnUse"><stop offset="0" stop-color="#662acc"/><stop offset="1" stop-color="#7459d6"/></linearGradient><linearGradient id="linear-gradient-13" x1="-62.76" y1="595.13" x2="-63.24" y2="592.57" gradientTransform="matrix(39.91, 0, 0, -28.7, 2647.28, 17236.33)" gradientUnits="userSpaceOnUse"><stop offset="0" stop-color="#5629a9"/><stop offset="1" stop-color="#603db7" stop-opacity="0"/></linearGradient><linearGradient id="linear-gradient-14" x1="-80.14" y1="589.51" x2="-81.02" y2="588.5" gradientTransform="matrix(9.58, 0, 0, -17.93, 918.16, 10760.29)" xlink:href="#linear-gradient-6"/><linearGradient id="linear-gradient-15" x1="-60.61" y1="596.52" x2="-60.75" y2="598.03" gradientTransform="matrix(69.72, 0, 0, -59.39, 4359.53, 35657.87)" gradientUnits="userSpaceOnUse"><stop offset="0" stop-color="#f4ba38"/><stop offset="1" stop-color="#ffd349"/></linearGradient><linearGradient id="linear-gradient-16" x1="-105.7" y1="590.11" x2="-107.27" y2="592.09" gradientTransform="matrix(4.58, 0, 0, -22.07, 600.02, 13206.92)" gradientUnits="userSpaceOnUse"><stop offset="0" stop-color="#ff911e"/><stop offset="1" stop-color="#fe931e" stop-opacity="0"/></linearGradient><linearGradient id="linear-gradient-17" x1="-89.21" y1="594.95" x2="-91.39" y2="596.57" gradientTransform="matrix(6.87, 0, 0, -40.85, 762.52, 24515.02)" xlink:href="#linear-gradient-16"/><linearGradient id="linear-gradient-18" x1="-327.78" y1="539" x2="-326.78" y2="539" gradientTransform="matrix(0.83, 0, 0, -3.68, 419.12, 2168.69)" xlink:href="#linear-gradient-16"/><linearGradient id="linear-gradient-19" x1="-164.28" y1="587.05" x2="-160.89" y2="587.05" gradientTransform="matrix(2.13, 0, 0, -16.06, 450.3, 9599.97)" xlink:href="#linear-gradient-16"/><linearGradient id="linear-gradient-20" x1="-69.71" y1="593.19" x2="-70.38" y2="594.25" gradientTransform="matrix(17.46, 0, 0, -31.46, 1352.45, 18819.13)" xlink:href="#linear-gradient-6"/><linearGradient id="linear-gradient-21" x1="1463.14" y1="564.82" x2="1464.14" y2="564.82" gradientTransform="matrix(4.19, 0, 0, -6.56, 358.84, 3898.02)" gradientUnits="userSpaceOnUse"><stop offset="0" stop-color="#891531"/><stop offset="1" stop-color="#891531" stop-opacity="0"/></linearGradient><linearGradient id="linear-gradient-22" x1="215.55" y1="392.04" x2="214.22" y2="393.04" gradientTransform="matrix(15.09, 0, 0, -32.03, 979.36, 19217.67)" xlink:href="#linear-gradient-16"/></defs><path id="Path_3" data-name="Path 3" class="cls-1" d="M138.7,315.23c-6-3.88-33.27,3.78-32.8,12.27s21.71,1.89,28.55,9.91S180.47,342.13,138.7,315.23Z" transform="translate(-32.63 -28.43)"/><path id="Path_30" data-name="Path 30" class="cls-2" d="M320.19,327.3s49.14-.65,52.42-9.17S337.23,309.61,320.19,327.3Z" transform="translate(-32.63 -28.43)"/><path id="Path_31" data-name="Path 31" class="cls-3" d="M320.19,327.3s11.14-26.21,36-34.73,24.9,14.42,3.28,17S320.19,327.3,320.19,327.3Z" transform="translate(-32.63 -28.43)"/><path id="Path_32" data-name="Path 32" class="cls-4" d="M315,320.75s16.38-38,27.52-51.76,19.66-19,26.21-15.08,5.24,17-9.18,28.18-28.83,27.52-39.31,45.21Z" transform="translate(-32.63 -28.43)"/><path id="Path_33" data-name="Path 33" class="cls-5" d="M320.19,327.3s7.21-38,22.9-70.75c14.72-30.72,4.06-46.51-7.59-38.64-13.93,9.41-22.1,50.31-20.11,103.94Z" transform="translate(-32.63 -28.43)"/><g id="Group_14" data-name="Group 14" class="cls-6"><path id="Path_34" data-name="Path 34" class="cls-7" d="M363.76,317.8a113.14,113.14,0,0,0-39,7.69" transform="translate(-32.63 -28.43)"/><path id="Path_35" data-name="Path 35" class="cls-7" d="M365.73,296.83s-25.32,4.24-42.48,28.66" transform="translate(-32.63 -28.43)"/><path id="Path_36" data-name="Path 36" class="cls-7" d="M363.76,264.72S337.55,278.48,320.51,323" transform="translate(-32.63 -28.43)"/><path id="Path_37" data-name="Path 37" class="cls-7" d="M340.17,227.37c-9.5,23.27-17.41,48.45-23.91,80.27l.32.33" transform="translate(-32.63 -28.43)"/></g><rect id="Rectangle_2" data-name="Rectangle 2" class="cls-8" x="136.95" width="160.45" height="301.23" rx="15.58"/><path id="Path_38" data-name="Path 38" class="cls-9" d="M324,49.6V308.36a15,15,0,0,1-15,15H190.69a15.05,15.05,0,0,1-15-15V49.6a15.05,15.05,0,0,1,15-15h32a3,3,0,0,1,2.78,1.87l2.29,5.58a2.76,2.76,0,0,0,2.57,1.73h44.41a2.78,2.78,0,0,0,2.55-1.66l2.14-4.89a4.42,4.42,0,0,1,4-2.63H309A15,15,0,0,1,324,49.6Z" transform="translate(-32.63 -28.43)"/><path id="Union_1" data-name="Union 1" class="cls-10" d="M175.77,67.93V55h-.09V49.41a15.05,15.05,0,0,1,15-15h32a3,3,0,0,1,2.78,1.87l2.29,5.58a2.78,2.78,0,0,0,2.57,1.73h44.41a2.78,2.78,0,0,0,2.54-1.67L279.43,37a4.42,4.42,0,0,1,4-2.64H309a15.05,15.05,0,0,1,15,15V54h0v14Z" transform="translate(-32.63 -28.43)"/><g id="Group_16" data-name="Group 16"><path id="Path_40" data-name="Path 40" class="cls-11" d="M275.76,144.76a25.88,25.88,0,1,1,0-.12Z" transform="translate(-32.63 -28.43)"/><path id="Path_41" data-name="Path 41" class="cls-12" d="M266.56,164.57a25.94,25.94,0,0,1-33.31.16A34.78,34.78,0,0,1,237,151.78a5.08,5.08,0,0,1,6.65-2.19,14.64,14.64,0,0,0,12.44-.06,5.07,5.07,0,0,1,6.66,2.15A34.73,34.73,0,0,1,266.56,164.57Z" transform="translate(-32.63 -28.43)"/><path id="Path_42" data-name="Path 42" class="cls-12" d="M260.59,136.38a10.78,10.78,0,1,1-10.78-10.78,10.78,10.78,0,0,1,10.78,10.78Z" transform="translate(-32.63 -28.43)"/></g><g id="Group_20" data-name="Group 20"><g id="Group_17" data-name="Group 17"><circle id="Ellipse_1" data-name="Ellipse 1" class="cls-13" cx="259.44" cy="225.79" r="15.67"/><path id="Path_43" data-name="Path 43" class="cls-9" d="M294.93,247.87s1.4-4.34,2.56-4.5,5.54,2.79,4.81,7.56S295,262.6,289.85,263s-8.52-2.75-8.06-3.84,2.56-3.76,4.42-2.83,3.45,2.87,5.58,1.2,5.7-4.65,5.93-6.28S294.93,249.57,294.93,247.87Z" transform="translate(-32.63 -28.43)"/></g><g id="Group_18" data-name="Group 18"><circle id="Ellipse_2" data-name="Ellipse 2" class="cls-14" cx="175.02" cy="225.79" r="15.67"/><path id="Path_44" data-name="Path 44" class="cls-9" d="M210.51,247.87s1.4-4.34,2.56-4.5,5.55,2.79,4.81,7.56S210.55,262.6,205.44,263s-8.53-2.75-8.06-3.84,2.55-3.76,4.42-2.83,3.45,2.87,5.58,1.2,5.7-4.65,5.93-6.28S210.51,249.57,210.51,247.87Z" transform="translate(-32.63 -28.43)"/></g><g id="Group_19" data-name="Group 19"><path id="Path_45" data-name="Path 45" class="cls-15" d="M235.29,254.22a2.4,2.4,0,1,1-2.39-2.39h0A2.39,2.39,0,0,1,235.29,254.22Z" transform="translate(-32.63 -28.43)"/><path id="Path_46" data-name="Path 46" class="cls-15" d="M245.87,254.32a2.4,2.4,0,1,1-2.39-2.39h0A2.39,2.39,0,0,1,245.87,254.32Z" transform="translate(-32.63 -28.43)"/><path id="Path_47" data-name="Path 47" class="cls-15" d="M256.44,254.22a2.4,2.4,0,1,1-2.39-2.39h0A2.39,2.39,0,0,1,256.44,254.22Z" transform="translate(-32.63 -28.43)"/><path id="Path_48" data-name="Path 48" class="cls-15" d="M267,254.32a2.4,2.4,0,1,1-2.39-2.39h0A2.39,2.39,0,0,1,267,254.32Z" transform="translate(-32.63 -28.43)"/></g></g><g id="Group_21" data-name="Group 21"><path id="Path_49" data-name="Path 49" class="cls-16" d="M268,192.26H228.11a5.69,5.69,0,0,1-5.69-5.69h0a5.69,5.69,0,0,1,5.69-5.69H268a5.69,5.69,0,0,1,5.69,5.69h0A5.69,5.69,0,0,1,268,192.26Z" transform="translate(-32.63 -28.43)"/><rect id="Rectangle_3" data-name="Rectangle 3" class="cls-15" x="181.01" y="180.79" width="14.97" height="3.59" rx="1.51"/><rect id="Rectangle_4" data-name="Rectangle 4" class="cls-15" x="201.56" y="180.79" width="14.97" height="3.59" rx="1.51"/><rect id="Rectangle_5" data-name="Rectangle 5" class="cls-15" x="221.92" y="180.79" width="14.97" height="3.59" rx="1.51"/><rect id="Rectangle_6" data-name="Rectangle 6" class="cls-15" x="242.47" y="180.79" width="14.97" height="3.59" rx="1.51"/><path id="Path_50" data-name="Path 50" class="cls-15" d="M290.57,202H209.15a2.9,2.9,0,0,1-2.89-2.9h0a2.89,2.89,0,0,1,2.89-2.89h81.42a2.89,2.89,0,0,1,2.9,2.89h0A2.9,2.9,0,0,1,290.57,202Z" transform="translate(-32.63 -28.43)"/></g><path id="Path_51" data-name="Path 51" class="cls-15" d="M274.46,306.81H221.57a4.49,4.49,0,0,1-4.49-4.49h0a4.49,4.49,0,0,1,4.49-4.49h52.89a4.49,4.49,0,0,1,4.49,4.49h0a4.49,4.49,0,0,1-4.49,4.49Z" transform="translate(-32.63 -28.43)"/><path id="Path_52" data-name="Path 52" class="cls-17" d="M97.25,140.22l.93,5.62h-.46l-3.36.7-1.16.24c-.63-3.9-1.61-5.36-3.28-9.2a21.18,21.18,0,0,1-1.27-5c-.43-2.92-.48-5.65-.29-5.75s1.72,6.86,1.72,6.86-1.09-9.51-.47-9.51,1.79,8.19,1.87,8.71c0-.55-.91-9.8-.31-10s2.59,9.67,2.65,10c0-.28-.94-8.47-.47-8.57s1,3.42,1.56,6.09a22.32,22.32,0,0,0,.78,2.8c1.56-2.18.63-5.77,1.09-5.77s1.4,3.28,1.4,5.15q0,.27,0,.69h0a2.45,2.45,0,0,1,0,.27h0c0,.36-.08.78-.13,1.23C97.72,137.12,97.25,140.22,97.25,140.22Z" transform="translate(-32.63 -28.43)"/><path id="Path_53" data-name="Path 53" class="cls-18" d="M93.74,142.49a15.88,15.88,0,0,0,.61,4l-1.16.24c-.62-3.9-1.6-5.37-3.27-9.2a20.71,20.71,0,0,1-1.27-5,18.33,18.33,0,0,0,2.28,5.55C92.49,140.15,93.74,140.46,93.74,142.49Z" transform="translate(-32.63 -28.43)"/><path id="Path_54" data-name="Path 54" class="cls-19" d="M98.15,133.28l0,.28A1.27,1.27,0,0,1,98.15,133.28Z" transform="translate(-32.63 -28.43)"/><path id="Path_55" data-name="Path 55" class="cls-18" d="M98.18,145.84h-.47l-3.36.7,3.29-.77s-1.72-4.84-1.4-6.24c.25-1.15,1.38-2.89,1.76-4.74-.27,2.34-.75,5.44-.75,5.44Z" transform="translate(-32.63 -28.43)"/><path id="Path_56" data-name="Path 56" class="cls-20" d="M145.44,310.91l.47,15.13h-.71l-.78-7.49s.37,5.69-3.9,8.74c-5.45,3.9-7.32-.39-5.76-2.81,2.49-3.9,3.74-7.49,4.36-13.88A5.17,5.17,0,0,1,145.44,310.91Z" transform="translate(-32.63 -28.43)"/><path id="Path_57" data-name="Path 57" class="cls-21" d="M139.59,312.47a7.93,7.93,0,0,0,3.9.16s-.36,7.79-3.43,10c-3.28,2.34-2.44-1.06-1.87-2.34C139.43,317.46,139.59,312.47,139.59,312.47Z" transform="translate(-32.63 -28.43)"/><path id="Path_58" data-name="Path 58" class="cls-22" d="M129.14,234.66s2.5,15.59,3.28,22.45,4.68,44.6,6.7,53.8a5.32,5.32,0,0,0,1.71.74,5.92,5.92,0,0,0,4.53-.74s-1.25-33.68-.63-44.13-.78-24.17.63-32.12c1.07-6.06-8.91-2.88-13.72-1C130.14,234.21,129.14,234.66,129.14,234.66Z" transform="translate(-32.63 -28.43)"/><path id="Path_59" data-name="Path 59" class="cls-20" d="M123.45,311l.47,15.13h-.7l-.78-7.49s.36,5.69-3.9,8.73c-5.46,3.9-7.32-.38-5.77-2.8,2.49-3.9,3.74-7.49,4.36-13.88A5.17,5.17,0,0,1,123.45,311Z" transform="translate(-32.63 -28.43)"/><path id="Path_60" data-name="Path 60" class="cls-23" d="M117.6,312.55a7.93,7.93,0,0,0,3.9.16s-.36,7.79-3.43,10c-3.27,2.34-2.44-1.07-1.87-2.34C117.45,317.54,117.6,312.55,117.6,312.55Z" transform="translate(-32.63 -28.43)"/><path id="Path_61" data-name="Path 61" class="cls-24" d="M122.79,241.13c-.28,7.78.44,17.72,0,25.73-.63,10.45.62,44.13.62,44.13a6.09,6.09,0,0,1-3.14.9,5.94,5.94,0,0,1-1.39-.17,5.39,5.39,0,0,1-1.71-.73c-2-9.2-5.92-46.94-6.7-53.8s-3.28-22.46-3.28-22.46,1-.45,2.5-1c4.81-1.85,14.79-5,13.72,1A47.27,47.27,0,0,0,122.79,241.13Z" transform="translate(-32.63 -28.43)"/><path id="Path_62" data-name="Path 62" class="cls-18" d="M120.23,311.89c1.43-4.95,1.46-13.32,0-21.33-1.87-10.44-.32-16.21,0-25.42s-2.19-21.83-2.19-21.83l4.72-2.18c-.28,7.78.44,17.72,0,25.73-.63,10.45.62,44.13.62,44.13A6.09,6.09,0,0,1,120.23,311.89Z" transform="translate(-32.63 -28.43)"/><path id="Path_63" data-name="Path 63" class="cls-18" d="M142.22,311.89c1.43-4.95,1.46-13.32,0-21.33-1.87-10.44-.31-16.21,0-25.42s-2.18-21.83-2.18-21.83l4.71-2.18c-.27,7.78.44,17.72,0,25.73-.63,10.45.62,44.13.62,44.13A6.12,6.12,0,0,1,142.22,311.89Z" transform="translate(-32.63 -28.43)"/><path id="Path_64" data-name="Path 64" class="cls-25" d="M360.93,177.37" transform="translate(-32.63 -28.43)"/><path id="Path_65" data-name="Path 65" class="cls-26" d="M114.1,142.34s1.1-4.94-.63-16.84-.39-19.57,4.29-17.54c0,0,0-3.59,5.46-4.68s11.62,3,13,10.84,2.34,23.54,4.83,28.22S114.1,142.34,114.1,142.34Z" transform="translate(-32.63 -28.43)"/><path id="Path_66" data-name="Path 66" class="cls-27" d="M147.73,220.63c-.25,10.74-.81,21.75-.81,21.75-22,7.8-39.92.93-39.92.93-1.4-11.07-1.82-27.19.91-38.34,1.71-7,3.07-11.79,3.07-11.79l35.4-1.25C147.84,198.11,148,210.1,147.73,220.63Z" transform="translate(-32.63 -28.43)"/><path id="Path_67" data-name="Path 67" class="cls-28" d="M147.73,220.63a72.81,72.81,0,0,1-14.45-9.83c-10.88-9.13-21.56-7-25.37-5.83,1.71-7,3.07-11.79,3.07-11.79l35.4-1.25C147.84,198.11,148,210.1,147.73,220.63Z" transform="translate(-32.63 -28.43)"/><path id="Path_68" data-name="Path 68" class="cls-29" d="M147.15,198.79a9.79,9.79,0,0,1-.62,3.75c-.49,1.46-1.83,2.7-2.81,4.05a3.45,3.45,0,0,0-.58,1.64,8.25,8.25,0,0,0,0,.86c0,.95,1.56,4,.78,3.74-.52-.21-1.49-2.31-1.87-3.59a11.43,11.43,0,0,1,.15-4.36,7.57,7.57,0,0,0-.78,4.21c.63,2.65,1.56,4.68,1.1,4.68s-1.3-1.69-2.19-3.9a8.27,8.27,0,0,1-.31-3,21.42,21.42,0,0,1,.16-2.65,19,19,0,0,0-.63,4.37c0,1.09.47,4.37.16,4.21s-1.09-2.65-1.25-3.74c-.29-2-.2-5.15.16-5.77.62-1.09,5-7.49,5-7.49l3.06,1.48,1.2.58Z" transform="translate(-32.63 -28.43)"/><path id="Path_69" data-name="Path 69" class="cls-18" d="M147.16,198.79a9.8,9.8,0,0,1-.63,3.75c-.49,1.46-1.82,2.7-2.8,4.05a3.36,3.36,0,0,0-.59,1.64s-.51-1.64,1.21-3.82,1.09-4.52,1.4-5.46a8.34,8.34,0,0,1,.88-1.64l1.2.58Z" transform="translate(-32.63 -28.43)"/><path id="Path_70" data-name="Path 70" class="cls-30" d="M161,167.14c-.15-1.71-17-27-18.24-27.44s-13.72-1.4-16.53-.63l-3.47.06s-10.1,1.19-12,3.22c-1.3,1.41-4.94,12.24-7,18.71-.76,2.35-1.32,4.13-1.49,4.66a1.66,1.66,0,0,0,0,.17l-.69-4.11-2.9-17.41-7.33,1.4S93.2,163.55,94,170.26s2.5,13.25,4.52,14.66,7.49.46,8.74-1.56a46.26,46.26,0,0,0,4.27-9.43c.81-2.32,1.51-4.48,1.93-6l.19-.76a10.74,10.74,0,0,1,0,2.23c0,.12,0,.25,0,.38a123.16,123.16,0,0,1-3.11,25.15,39.59,39.59,0,0,0,31,0c.6-.27,1.2-.55,1.81-.85l.23-.12-.77,1.4h0l5.61,2.81s6.86-14.19,9.36-20S161.19,168.85,161,167.14Zm-11.07.94c-.1.72-1.69,8.12-2.76,13.1-.34,1.56-.62,2.88-.8,3.68-.12.53-.18.84-.18.84a1.11,1.11,0,0,1,0-.13c-.22-1.43-2.32-14.81-2.32-17a70.61,70.61,0,0,1,.93-7.8l.11.13c.76.89,5.19,6.2,5,7.2Z" transform="translate(-32.63 -28.43)"/><path id="Path_71" data-name="Path 71" class="cls-31" d="M112.68,161.59c.21,1.46.64,4.79.9,6.84-.41,1.56-1.11,3.72-1.92,6-.67-4.13-1.85-12.26-1.16-13.65.94-1.87,4.37-8.42,4.37-8.42S112.37,159.41,112.68,161.59Z" transform="translate(-32.63 -28.43)"/><path id="Path_72" data-name="Path 72" class="cls-32" d="M113.77,169.91l0,.23,0,.14Z" transform="translate(-32.63 -28.43)"/><path id="Path_73" data-name="Path 73" class="cls-32" d="M137.8,167.14" transform="translate(-32.63 -28.43)"/><path id="Path_74" data-name="Path 74" class="cls-33" d="M143.89,168.54c0,2.22,2.1,15.6,2.31,17a85,85,0,0,1-2.86,8.51c-.6.3-2.9,1.18-3.5,1.44.34-4.52,2.34-9.2.78-18.4-2.7-15.92-.32-22.46-.32-22.46l4.63,6.21-.1-.12A67.87,67.87,0,0,0,143.89,168.54Z" transform="translate(-32.63 -28.43)"/><path id="Path_75" data-name="Path 75" class="cls-34" d="M147.23,181.67c-.27,1.12-.55,2.19-.83,3.19.18-.8.46-2.13.8-3.68Z" transform="translate(-32.63 -28.43)"/><path id="Path_76" data-name="Path 76" class="cls-35" d="M132.5,140.16s-1,4.14-2.3,9.12c-1.95,7.62-4.5,17.21-4.88,16.92-.21-.16-.61-3.3-1-7.34-.83-7.7-1.76-18.7-1.76-18.7Z" transform="translate(-32.63 -28.43)"/><path id="Path_77" data-name="Path 77" class="cls-36" d="M104.57,177.65l-2.13-11.4c.17-.53.73-2.31,1.49-4.66Z" transform="translate(-32.63 -28.43)"/><path id="Path_78" data-name="Path 78" class="cls-37" d="M132.49,140.16s-4.36,4.83-10,0a14.44,14.44,0,0,0,.64-3.86,20.55,20.55,0,0,0,0-2.22,3.19,3.19,0,0,1-1.26.49,2.82,2.82,0,0,1-1.32-.1c-1.4-.47-4.83-5.46-5.14-16.06,0,0,2.32-1.19,3.88-5.21a19.46,19.46,0,0,0,.72-2.36,12.35,12.35,0,0,0,7,7.49l0,.15c.15.83.94,4.75,2.47,6.55,0,0,.16-6.55,2.18-6.08s.84,5.72.63,6.24c-.32.78-1.1.31-1.1.31S131.09,135.79,132.49,140.16Z" transform="translate(-32.63 -28.43)"/><path id="Path_79" data-name="Path 79" class="cls-18" d="M127.2,131.43a8.39,8.39,0,0,1-4,4.86,18.13,18.13,0,0,0,0-2.21,3.19,3.19,0,0,1-1.26.49h0A17.75,17.75,0,0,0,127.2,131.43Z" transform="translate(-32.63 -28.43)"/><path id="Path_80" data-name="Path 80" class="cls-18" d="M127.07,118.48c-3.6-.22-6.44-3.44-7.77-5.28a17.83,17.83,0,0,0,.72-2.36,12.38,12.38,0,0,0,7,7.49Z" transform="translate(-32.63 -28.43)"/><path id="Path_81" data-name="Path 81" class="cls-38" d="M130.2,149.28c-1.95,7.62-4.5,17.2-4.87,16.92-.22-.16-.62-3.3-1-7.34Z" transform="translate(-32.63 -28.43)"/><path id="Path_88" data-name="Path 88" class="cls-39" d="M45.16,332s-3.71-4.95-8.76-3.6-3.86,3.15-3,3.6A22.65,22.65,0,0,0,45.16,332Z" transform="translate(-32.63 -28.43)"/><path id="Path_105" data-name="Path 105" class="cls-40" d="M84.15,197.71l0-.25,0,.27Z" transform="translate(-32.63 -28.43)"/><path id="Path_106" data-name="Path 106" class="cls-40" d="M85,192.17v0Z" transform="translate(-32.63 -28.43)"/><path id="Path_124" data-name="Path 124" class="cls-25" d="M182.63,187.29" transform="translate(-32.63 -28.43)"/><path id="Path_129" data-name="Path 129" class="cls-41" d="M173.7,195l4.2-5.45L176,192s-.42-1.37-1.11-3.51Z" transform="translate(-32.63 -28.43)"/><path id="Path_133" data-name="Path 133" class="cls-42" d="M163.44,191.87c-.26-2.33-.41-3.74-.41-3.74s6.55,20.29,11.74,20.75a3.54,3.54,0,0,0,2.28-.76,6.57,6.57,0,0,1-3.65-4c-2.14-5.65-2.44-11.14-6.1-14.49s-4.42-9.15-5.34-12.82A101.08,101.08,0,0,0,163.44,191.87Z" transform="translate(-32.63 -28.43)"/><path id="Path_142" data-name="Path 142" class="cls-43" d="M171.69,43.27H121.94a4.62,4.62,0,0,0-4.62,4.62h0V83.48a4.62,4.62,0,0,0,2.41,4.06l-4.66,13.22a1.27,1.27,0,0,0,2,1.4l16.9-14h37.71a4.62,4.62,0,0,0,4.62-4.62h0V47.89a4.62,4.62,0,0,0-4.62-4.62Z" transform="translate(-32.63 -28.43)"/><g id="Group_26" data-name="Group 26"><path id="Path_143" data-name="Path 143" class="cls-14" d="M161.06,65.66a14.25,14.25,0,1,1-14.27-14.22h0A14.2,14.2,0,0,1,161.06,65.6Z" transform="translate(-32.63 -28.43)"/><path id="Path_144" data-name="Path 144" class="cls-9" d="M156,76.55a14.23,14.23,0,0,1-18.29.11,19,19,0,0,1,2-7.11,2.8,2.8,0,0,1,3.65-1.21,8,8,0,0,0,6.83,0,2.78,2.78,0,0,1,3.66,1.18A18.85,18.85,0,0,1,156,76.55Z" transform="translate(-32.63 -28.43)"/><path id="Path_145" data-name="Path 145" class="cls-9" d="M152.73,61.07a5.92,5.92,0,1,1-5.93-5.91,5.92,5.92,0,0,1,5.93,5.91Z" transform="translate(-32.63 -28.43)"/></g><path id="Path_151" data-name="Path 151" class="cls-44" d="M100.23,59.39a.24.24,0,0,0,0,.08l0,0Z" transform="translate(-32.63 -28.43)"/></svg>